<svg xmlns="http://www.w3.org/2000/svg" version="1.1" xmlns:xlink="http://www.w3.org/1999/xlink" xmlns:svgjs="http://svgjs.com/svgjs" width="1440" height="560" preserveAspectRatio="none" viewBox="0 0 1440 560"><g mask="url(&quot;#SvgjsMask1026&quot;)" fill="none"><rect width="1440" height="560" x="0" y="0" fill="#0e2a47"></rect><path d="M564.8838219569125 77.37699307410864L646.2897096500327 22.468028503980875 591.380745079905-58.9378591891394 509.9748573867847-4.0288946190116235z" fill="rgba(28, 83, 142, 0.4)" class="triangle-float2"></path><path d="M494.23 471.8 a186.41 186.41 0 1 0 372.82 0 a186.41 186.41 0 1 0 -372.82 0z" fill="rgba(28, 83, 142, 0.4)" class="triangle-float2"></path><path d="M128.6939188297879 222.05658577204838L103.26694949209067 120.0745819548118 1.2849456748541002 145.50155129250902 26.711915012551316 247.4835551097456z" fill="rgba(28, 83, 142, 0.4)" class="triangle-float3"></path><path d="M410.6334597651916 109.24496423568567L473.9570002511115 43.67151848597122 408.38355450139704-19.652021999948687 345.0600140154772 45.92142374976578z" fill="rgba(28, 83, 142, 0.4)" class="triangle-float2"></path><path d="M793.8294858182092 407.96301219649894L890.2094031134953 439.3803263340572 873.3009707253287 352.3939825877524z" fill="rgba(28, 83, 142, 0.4)" class="triangle-float2"></path><path d="M411.35860407766233 275.352683980317L365.311695986101 198.71775961785144 288.67677162363543 244.76466770941278 334.7236797151968 321.3995920718784z" fill="rgba(28, 83, 142, 0.4)" class="triangle-float2"></path><path d="M376.80653392673 336.8130444927385L291.60646005987536 384.0402166215806 338.83363218871744 469.2402904884352 424.0337060555721 422.0131183595932z" fill="rgba(28, 83, 142, 0.4)" class="triangle-float1"></path><path d="M672.9648782390361 15.144538904392085L580.0860757148924 36.5873000370495 658.6896186759504 165.18412325693623z" fill="rgba(28, 83, 142, 0.4)" class="triangle-float3"></path><path d="M1437.98,644.952C1473.702,646.556,1511.944,636.566,1530.068,605.742C1548.38,574.598,1540.459,535.021,1520.213,505.097C1502.284,478.597,1469.93,467.941,1437.98,469.633C1409.068,471.164,1384.708,488.398,1369.567,513.077C1353.57,539.152,1345.095,570.913,1359.182,598.068C1374.267,627.146,1405.255,643.483,1437.98,644.952" fill="rgba(28, 83, 142, 0.4)" class="triangle-float3"></path><path d="M901.83,345.937C942.081,346.983,986.427,339.51,1006.736,304.742C1027.167,269.766,1011.973,227.355,991.523,192.39C971.328,157.861,941.814,126.539,901.83,125.373C860.137,124.157,822.711,150.342,802.596,186.882C783.181,222.152,784.653,265.365,805.964,299.523C826.106,331.808,863.79,344.948,901.83,345.937" fill="rgba(28, 83, 142, 0.4)" class="triangle-float1"></path><path d="M1325.7434141678384 112.8670387871611L1301.2920353396437 37.613432706390626 1200.6373156325853 111.91730398906799z" fill="rgba(28, 83, 142, 0.4)" class="triangle-float1"></path><path d="M67.81387594921826 203.1064703569719L67.81387594921827 265.072331384966 160.76266749120936 234.08940087096892z" fill="rgba(28, 83, 142, 0.4)" class="triangle-float3"></path><path d="M139.529,524.557C173.314,525.601,205.562,506.033,220.578,475.751C234.289,448.1,223.091,416.277,205.951,390.61C190.94,368.131,166.533,355.562,139.529,354.385C109.949,353.096,77.941,359.233,62.26,384.347C45.842,410.64,51.757,443.848,66.718,470.996C82.304,499.279,107.251,523.559,139.529,524.557" fill="rgba(28, 83, 142, 0.4)" class="triangle-float2"></path><path d="M559.48 63.52 a114.88 114.88 0 1 0 229.76 0 a114.88 114.88 0 1 0 -229.76 0z" fill="rgba(28, 83, 142, 0.4)" class="triangle-float3"></path><path d="M836.888,686.335C886.138,684.202,924.772,651.445,952.114,610.426C983.912,562.722,1016.584,506.212,991.227,454.793C963.9,399.38,898.553,372.926,836.888,376.772C781.034,380.255,739.53,423.086,712.642,472.167C687.004,518.966,676.199,575.057,702.976,621.214C729.671,667.23,783.739,688.637,836.888,686.335" fill="rgba(28, 83, 142, 0.4)" class="triangle-float3"></path><path d="M826.9257710483726 126.84471126428545L768.8539739929827 49.780833699738864 691.7900964284361 107.85263075512876 749.861893483826 184.91650831967536z" fill="rgba(28, 83, 142, 0.4)" class="triangle-float1"></path></g><defs><mask id="SvgjsMask1026"><rect width="1440" height="560" fill="#ffffff"></rect></mask><style>
            @keyframes float1 {
                0%{transform: translate(0, 0)}
                50%{transform: translate(-10px, 0)}
                100%{transform: translate(0, 0)}
            }

            .triangle-float1 {
                animation: float1 5s infinite;
            }

            @keyframes float2 {
                0%{transform: translate(0, 0)}
                50%{transform: translate(-5px, -5px)}
                100%{transform: translate(0, 0)}
            }

            .triangle-float2 {
                animation: float2 4s infinite;
            }

            @keyframes float3 {
                0%{transform: translate(0, 0)}
                50%{transform: translate(0, -10px)}
                100%{transform: translate(0, 0)}
            }

            .triangle-float3 {
                animation: float3 6s infinite;
            }
        </style></defs></svg>