<svg xmlns="http://www.w3.org/2000/svg" version="1.1" xmlns:xlink="http://www.w3.org/1999/xlink" xmlns:svgjs="http://svgjs.com/svgjs" width="1440" height="560" preserveAspectRatio="none" viewBox="0 0 1440 560"><g mask="url(&quot;#SvgjsMask1070&quot;)" fill="none"><rect width="1440" height="560" x="0" y="0" fill="#1e3266"></rect><path d="M1512 560L0 560 L0 358.23Q52.51 290.75, 120 343.26Q153.5 256.75, 240 290.25Q286.1 264.35, 312 310.45Q354.2 232.65, 432 274.86Q491.59 262.45, 504 322.04Q546.84 244.88, 624 287.71Q666.07 257.77, 696 299.84Q748.01 279.86, 768 331.87Q843.08 286.95, 888 362.03Q892.7 294.73, 960 299.43Q1011.01 230.44, 1080 281.45Q1183.6 265.05, 1200 368.65Q1227.09 323.74, 1272 350.82Q1301.45 260.27, 1392 289.73Q1468.19 245.93, 1512 322.12z" fill="#182f5d"></path><path d="M1488 560L0 560 L0 435.64Q55.34 370.98, 120 426.32Q171.38 357.7, 240 409.09Q248.71 345.8, 312 354.51Q355.69 326.2, 384 369.9Q434.39 348.29, 456 398.69Q521.57 344.25, 576 409.82Q592.71 354.53, 648 371.24Q714.82 318.06, 768 384.88Q827.52 372.4, 840 431.92Q870.18 390.1, 912 420.27Q932.7 368.97, 984 389.66Q1038.26 323.92, 1104 378.17Q1191.57 345.74, 1224 433.31Q1241.13 330.44, 1344 347.56Q1385.86 317.42, 1416 359.28Q1467.44 338.72, 1488 390.16z" fill="#25467d"></path><path d="M1536 560L0 560 L0 508.29Q46.25 434.54, 120 480.79Q164.65 405.44, 240 450.09Q307.82 397.91, 360 465.74Q412.52 446.26, 432 498.78Q435.39 430.17, 504 433.56Q530.91 388.48, 576 415.39Q635.31 402.7, 648 462.02Q677.74 419.75, 720 449.49Q807.4 416.89, 840 504.29Q842.35 434.64, 912 437Q962.87 367.87, 1032 418.74Q1094.47 409.21, 1104 471.68Q1151.45 399.13, 1224 446.59Q1244.52 395.11, 1296 415.63Q1385.82 385.45, 1416 475.27Q1468.07 407.33, 1536 459.4z" fill="#356cb1"></path><path d="M1488 560L0 560 L0 570.65Q57.56 508.21, 120 565.77Q190.65 516.42, 240 587.08Q250.49 477.57, 360 488.05Q401.89 457.94, 432 499.84Q536.42 484.26, 552 588.69Q574.08 490.77, 672 512.85Q746.86 467.71, 792 542.57Q821.17 499.75, 864 528.92Q925.71 518.63, 936 580.33Q964.57 488.9, 1056 517.47Q1107.69 449.16, 1176 500.85Q1275.84 480.69, 1296 580.54Q1340.64 505.18, 1416 549.82Q1439.38 501.2, 1488 524.57z" fill="white"></path></g><defs><mask id="SvgjsMask1070"><rect width="1440" height="560" fill="#ffffff"></rect></mask></defs></svg>